<?xml version="1.0" encoding="utf-8"?>
<!-- Generator: Adobe Illustrator 16.0.0, SVG Export Plug-In . SVG Version: 6.00 Build 0)  -->
<!DOCTYPE svg PUBLIC "-//W3C//DTD SVG 1.1//EN" "http://www.w3.org/Graphics/SVG/1.1/DTD/svg11.dtd" [
	<!ENTITY ns_flows "http://ns.adobe.com/Flows/1.0/">
	<!ENTITY ns_extend "http://ns.adobe.com/Extensibility/1.0/">
	<!ENTITY ns_ai "http://ns.adobe.com/AdobeIllustrator/10.0/">
	<!ENTITY ns_graphs "http://ns.adobe.com/Graphs/1.0/">
]>
<svg version="1.1" xmlns:x="&ns_extend;" xmlns:i="&ns_ai;" xmlns:graph="&ns_graphs;"
	 xmlns="http://www.w3.org/2000/svg" xmlns:xlink="http://www.w3.org/1999/xlink" xmlns:a="http://ns.adobe.com/AdobeSVGViewerExtensions/3.0/"
	 x="0px" y="0px" width="111.772px" height="50px" viewBox="0 0 111.772 50" enable-background="new 0 0 111.772 50"
	 xml:space="preserve">
<g id="round_x5F_shape">
	<path fill="#282828" d="M52.037,38.723c-4.104,4.818-12.6,10.53-22.331,10.53c-14.004,0-27.101-10.414-27.101-24.276
		c0-12.491,10.678-24.265,27.101-24.265c8.743,0,17.829,4.833,22.345,10.542c-7.463,1.325-13.023,7.002-13.023,13.723
		S44.85,37.386,52.037,38.723z"/>
	<path fill="#FFFFFF" d="M48.476,37.566c0.55,0.19,1.117,0.38,1.724,0.59c-5.63,5.17-12.796,9.06-21.317,9.06
		c-11.65,0-24.11-9.8-24.11-22.1c0-12.3,11.5-22.27,23.96-22.27c8.58,0,15.751,3.604,21.301,9.034
		c-0.566,0.175-0.859,0.369-1.464,0.606c-5.1-4.79-11.907-8.2-19.767-8.2c-11.74,0-22.57,9.31-22.57,20.8
		c0,11.48,12.201,20.522,23.409,20.396C36.014,45.409,43.12,41.893,48.476,37.566z"/>
</g>
<g id="text_x5F_logo">
	<g>
		<g>
			<path fill="#00528E" d="M96.774,31.863l-4.122-13.867h-3.38l-4.158,14.024h3.1l0.78-2.604h3.87l0.77,2.604h3.19L96.774,31.863z
				 M89.673,27.096l1.25-4.208l1.26,4.208H89.673z"/>
			<path fill="#00528E" d="M104.803,17.996h-3.381l-4.107,13.867l-0.051,0.157h3.11l0.77-2.604h3.881l0.77,2.604h3.19
				L104.803,17.996z M101.825,27.096l1.26-4.208l1.26,4.208H101.825z"/>
		</g>
		<g>
			<path fill="#00528E" d="M53.954,25.257c-0.42-0.585-1.061-1.055-1.92-1.418c-0.44-0.165-0.851-0.306-1.23-0.411
				c-0.39-0.093-0.779-0.2-1.2-0.304c-0.64-0.176-1.079-0.365-1.3-0.575c-0.22-0.211-0.34-0.492-0.34-0.844
				c0-0.246,0.07-0.47,0.22-0.67c0.141-0.198,0.311-0.35,0.5-0.443c0.24-0.13,0.46-0.213,0.681-0.259
				c0.21-0.035,0.46-0.071,0.729-0.071c0.7,0,1.38,0.164,2.04,0.469c0.66,0.304,1.22,0.68,1.68,1.125h0.271v-3.2
				c-0.57-0.283-1.22-0.517-1.95-0.681c-0.729-0.175-1.46-0.258-2.2-0.258c-1.46,0-2.689,0.411-3.67,1.219
				c-0.979,0.809-1.47,1.876-1.47,3.189c0,0.96,0.21,1.782,0.63,2.427c0.41,0.645,1.101,1.161,2.05,1.548
				c0.42,0.152,0.87,0.292,1.351,0.409c0.47,0.117,0.92,0.224,1.34,0.353c0.34,0.105,0.63,0.257,0.88,0.481
				c0.24,0.222,0.36,0.503,0.36,0.854c0,0.316-0.07,0.577-0.221,0.762c-0.149,0.188-0.33,0.342-0.55,0.444
				c-0.18,0.097-0.41,0.166-0.7,0.214c-0.29,0.034-0.529,0.069-0.699,0.069c-0.71,0-1.431-0.164-2.181-0.491
				c-0.75-0.318-1.43-0.774-2.05-1.372h-0.28v3.329c0.61,0.305,1.28,0.563,2,0.774c0.71,0.21,1.54,0.316,2.49,0.316
				c1.64,0,2.95-0.422,3.91-1.265c0.97-0.858,1.45-1.984,1.45-3.366C54.574,26.641,54.364,25.855,53.954,25.257z"/>
			<path fill="#00528E" d="M62.404,24.483l4.27-6.295l0.14-0.211h-3.6l-3.95,6.212v-6.212h-3.1v14.011h3.1V27.25l0.61-0.961
				l3.37,5.699h3.75L62.404,24.483z"/>
			<path fill="#00528E" d="M74.853,17.977l-2.329,5.006l-2.431-5.006h-3.53l0.11,0.211l4.23,8.125v5.675h3.1v-5.851l4.271-8.16
				H74.853z"/>
		</g>
		<rect x="79.225" y="17.996" fill="#1E1E1E" width="5.244" height="14.263"/>
	</g>
	<polygon fill="#1E1E1E" points="44.708,17.088 104.538,17.088 104.788,17.996 44.708,17.996 	"/>
	<polygon fill="#1E1E1E" points="44.708,32.021 108.985,32.021 109.125,32.497 44.708,32.497 	"/>
</g>
<g id="logo">
	<g>
		<path fill="#FFFFFF" d="M50.033,5.036c0,0-13.575,2.759-19.862,8.194c-5.556,4.8-5.006,7.611-4.763,9.373
			c0.301,2.233,1.52,3.246,0.97,4.729c-0.506,1.36-3.951,2.849-5.564-2.186c-1.843-5.76,1.891-10.847,5.84-13.539
			c4.453-3.039,10.377-4.467,13.961-5.342C44.904,5.218,50.033,5.036,50.033,5.036z"/>
		<path fill="#ED1F24" d="M23.162,13.081c0,0-4.507,4.001-4.264,9.615c0.127,2.86,0.723,4.177,1.732,5.396
			c1.378,1.656,2.586,1.067,2.908,2.016c0.432,1.284-1.139,2.114-2.935,1.325c-1.977-0.86-3.382-3.284-3.545-6.696
			c-0.122-2.622,0.693-5.021,2.172-7.297C20.944,14.804,23.162,13.081,23.162,13.081z"/>
		<path fill="#ED1F24" d="M31.016,37.033c0,0,4.718-3.686,4.781-9.304c0.033-2.855-0.49-4.219-1.438-5.502
			c-1.279-1.749-2.524-1.249-2.789-2.217c-0.364-1.311,1.252-2.023,2.999-1.119c1.928,1,3.199,3.515,3.177,6.936
			c-0.017,2.623-0.964,4.963-2.568,7.127C33.325,35.472,31.016,37.033,31.016,37.033z"/>
		<path fill="#FFFFFF" d="M4.662,44.882c0,0,13.576-2.738,19.87-8.167c5.563-4.793,5.012-7.605,4.773-9.364
			c-0.306-2.235-1.52-3.252-0.974-4.732c0.51-1.36,3.966-2.844,5.568,2.195c1.836,5.759-1.897,10.839-5.856,13.527
			c-4.458,3.037-10.378,4.454-13.961,5.325C9.792,44.712,4.662,44.882,4.662,44.882z"/>
	</g>
	<path fill="#1E1E1E" d="M47.542,33.906c1.62,1.06,4.1,2.016,6.199,2.536c-0.243,0.38-0.461,0.672-0.656,0.943
		c-2.79-0.64-5.643-1.859-7.603-3.479c-0.32-0.24-0.62-0.51-0.91-0.811c-2.3-2.21-3.68-5.05-3.68-8.14s1.38-5.93,3.68-8.15
		c0.08-0.09,0.17-0.17,0.25-0.24c2.101-1.94,4.9-3.38,8.09-4.08l0.626,0.91c-2.641,0.62-5.096,1.72-6.966,3.17
		c-0.59,0.43-1.13,0.91-1.609,1.43c-1.86,1.95-2.95,4.32-2.95,6.89c0,2.88,1.38,5.53,3.68,7.6
		C46.252,33.006,46.872,33.477,47.542,33.906z"/>
</g>
</svg>
